<svg width="46" height="45" xmlns="http://www.w3.org/2000/svg">
  <path fill="none" d="M-1-1h48v47H-1z"/>
  <g>
    <path d="M30.996 23.852a18.811 18.811 0 0 1-5.633 9.86c4.378 3.2 10.19 4.18 15.485 2.423a17.199 17.199 0 0 0-9.85-12.283h-.002z" fill="#8DC63F"/>
    <path d="M7.243 36.137c5.3 1.757 11.107.773 15.485-2.426a18.809 18.809 0 0 1-5.636-9.856 17.19 17.19 0 0 0-9.85 12.283l.001-.001z" fill="#00A4E4"/>
    <path d="M24.046 7a17.153 17.153 0 0 0-5.732 12.822c0 .553.032 1.125.103 1.738a18.56 18.56 0 0 1 11.26 0c.07-.61.103-1.185.103-1.738 0-4.92-2.08-9.554-5.733-12.822h-.001z" fill="#FDB924"/>
    <path d="M19.001 23.428a16.83 16.83 0 0 0 5.045 8.837 16.838 16.838 0 0 0 5.044-8.837 16.524 16.524 0 0 0-10.09 0h.001z" fill="#BEBEBE"/>
  </g>
</svg>
