<?xml version="1.0" encoding="utf-8"?>
<!-- Generator: Adobe Illustrator 17.0.0, SVG Export Plug-In . SVG Version: 6.00 Build 0)  -->
<!DOCTYPE svg PUBLIC "-//W3C//DTD SVG 1.1//EN" "http://www.w3.org/Graphics/SVG/1.1/DTD/svg11.dtd">
<svg version="1.1" id="Layer_1" xmlns="http://www.w3.org/2000/svg" xmlns:xlink="http://www.w3.org/1999/xlink" x="0px" y="0px"
	 width="190px" height="30px" viewBox="0 0 190 30" enable-background="new 0 0 190 30" xml:space="preserve">
<g>
	<path fill="#1A1A1A" d="M129.28,8.361h3.151l3.213,10.881c0.245,0.797,0.367,1.655,0.398,1.655h0.062c0,0,0.153-0.858,0.397-1.655
		l3.366-10.85h2.724l3.335,10.85c0.245,0.797,0.429,1.655,0.429,1.655h0.061c0,0,0.122-0.858,0.368-1.655l3.243-10.881h3.121
		L148.16,23.87h-3.274l-3.214-9.961c-0.244-0.797-0.428-1.685-0.428-1.685h-0.061c0,0-0.184,0.888-0.429,1.685l-3.182,9.961h-3.305
		L129.28,8.361z"/>
	<g>
		<path fill="#1A1A1A" d="M81.577,7.994c4.376,0,6.701,3.249,6.701,7.264c0,0.398-0.092,1.287-0.092,1.287H76.895
			c0.153,3.402,2.57,5.118,5.324,5.118c2.662,0,4.59-1.808,4.59-1.808l1.224,2.176c0,0-2.295,2.207-5.997,2.207
			c-4.865,0-8.201-3.525-8.201-8.122C73.835,11.181,77.17,7.994,81.577,7.994z M85.249,14.307c-0.092-2.666-1.744-3.954-3.733-3.954
			c-2.264,0-4.1,1.41-4.529,3.954H85.249z"/>
		<path fill="#1A1A1A" d="M66.858,2.231h2.969v16.888c0,1.87,0.734,2.207,1.652,2.207c0.275,0,0.52-0.031,0.52-0.031v2.636
			c0,0-0.459,0.061-0.979,0.061c-1.683,0-4.162-0.46-4.162-4.352V2.231z"/>
		<path fill="#1A1A1A" d="M1.438,19.855c0,0,1.744,1.808,4.437,1.808c1.285,0,2.57-0.674,2.57-1.931
			c0-2.851-7.956-2.268-7.956-7.325c0-2.82,2.509-4.413,5.6-4.413c3.396,0,4.988,1.716,4.988,1.716l-1.194,2.238
			c0,0-1.377-1.379-3.824-1.379c-1.285,0-2.54,0.552-2.54,1.9c0,2.789,7.956,2.176,7.956,7.264c0,2.574-2.203,4.506-5.6,4.506
			C2.081,24.238,0,21.97,0,21.97L1.438,19.855z"/>
		<path fill="#1A1A1A" d="M21.878,8.361h2.876v2.054c0,0.613-0.061,1.134-0.061,1.134h0.061c0.735-1.808,2.907-3.555,5.324-3.555
			c2.601,0,4.131,1.195,4.651,3.525h0.061c0.857-1.87,2.999-3.525,5.508-3.525c3.489,0,5.11,1.992,5.11,5.946v9.931h-2.968v-9.287
			c0-2.176-0.429-3.893-2.755-3.893c-2.173,0-3.794,1.839-4.345,3.954c-0.153,0.643-0.214,1.348-0.214,2.145v7.081h-2.969v-9.287
			c0-2.023-0.306-3.893-2.692-3.893c-2.264,0-3.856,1.87-4.437,4.076c-0.153,0.613-0.184,1.318-0.184,2.023v7.081h-2.968V8.361z"/>
		<path fill="#1A1A1A" d="M49.081,8.361h2.723V9.68c0,0.613-0.061,1.134-0.061,1.134h0.061c0,0,1.316-2.82,5.202-2.82
			c4.161,0,6.793,3.31,6.793,8.122c0,4.934-2.968,8.122-7.008,8.122c-3.396,0-4.743-2.544-4.743-2.544h-0.061
			c0,0,0.061,0.552,0.061,1.349V30h-2.968V8.361z M56.332,21.694c2.448,0,4.468-2.023,4.468-5.547c0-3.371-1.805-5.548-4.376-5.548
			c-2.325,0-4.468,1.625-4.468,5.578C51.956,18.936,53.486,21.694,56.332,21.694z"/>
		<g>
			<path fill="#1A1A1A" d="M14.887,8.361h2.968V23.87h-2.968V8.361z"/>
			<circle fill="#1A1A1A" cx="16.371" cy="4.07" r="1.836"/>
		</g>
		<path fill="#1A1A1A" d="M121.049,7.994c4.375,0,6.701,3.249,6.701,7.264c0,0.398-0.092,1.287-0.092,1.287h-11.291
			c0.153,3.402,2.57,5.118,5.325,5.118c2.662,0,4.59-1.808,4.59-1.808l1.224,2.176c0,0-2.295,2.207-5.997,2.207
			c-4.865,0-8.2-3.525-8.2-8.122C113.307,11.181,116.643,7.994,121.049,7.994z M124.721,14.307
			c-0.092-2.666-1.744-3.954-3.733-3.954c-2.264,0-4.101,1.41-4.529,3.954H124.721z"/>
		<path fill="#1A1A1A" d="M89.808,8.361h3.152l3.763,10.482c0.306,0.859,0.49,2.115,0.521,2.115h0.061
			c0.031,0,0.245-1.256,0.551-2.115l3.764-10.482h3.121L99.018,23.87h-3.427L89.808,8.361z"/>
		<path fill="#1A1A1A" d="M107.54,8.361h2.968V23.87h-2.968V8.361z"/>
		<circle fill="#1A1A1A" cx="109.024" cy="4.07" r="1.836"/>
	</g>
</g>
<g>
	<g>
		<path fill="#BEBEBE" d="M188.649,24.142c0.751,0,1.351,0.612,1.351,1.379c0,0.767-0.6,1.379-1.351,1.379
			c-0.743,0-1.34-0.612-1.34-1.379C187.31,24.754,187.906,24.142,188.649,24.142z M188.649,26.644c0.607,0,1.075-0.492,1.075-1.122
			c0-0.631-0.468-1.123-1.075-1.123c-0.6,0-1.064,0.492-1.064,1.123C187.586,26.152,188.049,26.644,188.649,26.644z M188.189,24.804
			h0.547c0.268,0,0.449,0.17,0.449,0.434c0,0.219-0.144,0.348-0.26,0.378v0.008c0,0,0.015,0.015,0.049,0.08l0.272,0.525h-0.294
			l-0.264-0.552h-0.231v0.552h-0.267V24.804z M188.683,25.48c0.14,0,0.231-0.09,0.231-0.242c0-0.147-0.09-0.23-0.231-0.23h-0.226
			v0.472H188.683z"/>
	</g>
</g>
<path fill="#8DC63F" d="M176.901,16.852c-0.822,3.795-2.788,7.235-5.634,9.86c4.378,3.199,10.189,4.18,15.485,2.423
	C185.654,23.694,181.961,19.102,176.901,16.852z"/>
<path fill="#00A4E4" d="M153.147,29.137c5.301,1.757,11.107,0.773,15.485-2.426c-2.846-2.62-4.812-6.062-5.636-9.857
	C157.933,19.104,154.246,23.694,153.147,29.137z"/>
<path fill="#FDB924" d="M169.95,0c-3.652,3.268-5.732,7.901-5.732,12.822c0,0.553,0.032,1.125,0.103,1.738
	c3.685-1.166,7.57-1.166,11.259,0c0.071-0.611,0.103-1.185,0.103-1.738C175.682,7.901,173.603,3.268,169.95,0z"/>
<path fill="#BEBEBE" d="M164.905,16.428c0.736,3.405,2.495,6.489,5.045,8.837c2.55-2.351,4.309-5.435,5.044-8.837
	C171.683,15.376,168.206,15.376,164.905,16.428z"/>
<g>
</g>
<g>
</g>
<g>
</g>
<g>
</g>
<g>
</g>
<g>
</g>
</svg>
